HIERARCHY
ROOT Hips
{
  OFFSET -32.5998 29.0326 120.673
  CHANNELS 6 Xposition Yposition Zposition Zrotation Xrotation Yrotation
  JOINT LeftUpLeg
  {
    OFFSET 8.64259 1.95398 -2.38835
    CHANNELS 3 Zrotation Xrotation Yrotation
    JOINT LeftLeg
    {
      OFFSET 43.7702 0 0
      CHANNELS 3 Zrotation Xrotation Yrotation
      JOINT LeftFoot
      {
        OFFSET 40.6238 0 0
        CHANNELS 3 Zrotation Xrotation Yrotation
        JOINT LeftToeBase
        {
          OFFSET 12.7242 0 0
          CHANNELS 3 Zrotation Xrotation Yrotation
          End Site
          {
            OFFSET 0 0 0
          }
        }
      }
    }
  }
  JOINT RightUpLeg
  {
    OFFSET -8.2249 1.95398 -2.59336
    CHANNELS 3 Zrotation Xrotation Yrotation
    JOINT RightLeg
    {
      OFFSET 43.5653 0 0
      CHANNELS 3 Zrotation Xrotation Yrotation
      JOINT RightFoot
      {
        OFFSET 40.6238 0 0
        CHANNELS 3 Zrotation Xrotation Yrotation
        JOINT RightToeBase
        {
          OFFSET 12.7242 0 0
          CHANNELS 3 Zrotation Xrotation Yrotation
          End Site
          {
            OFFSET 0 0 0
          }
        }
      }
    }
  }
  JOINT Spine
  {
    OFFSET 0.165834 0.87714 6.61349
    CHANNELS 3 Zrotation Xrotation Yrotation
    JOINT Spine1
    {
      OFFSET 7.38963 1.71661e-005 0
      CHANNELS 3 Zrotation Xrotation Yrotation
      JOINT Spine2
      {
        OFFSET 11.9445 1.14441e-005 0
        CHANNELS 3 Zrotation Xrotation Yrotation
        JOINT Spine3
        {
          OFFSET 14.7254 4.19617e-005 0
          CHANNELS 3 Zrotation Xrotation Yrotation
          JOINT Spine4
          {
            OFFSET 10.9679 0 0
            CHANNELS 3 Zrotation Xrotation Yrotation
            JOINT RightShoulder
            {
              OFFSET 2.46616 -1.6653 3.69651
              CHANNELS 3 Zrotation Xrotation Yrotation
              JOINT RightArm
              {
                OFFSET 13.0012 0 0
                CHANNELS 3 Zrotation Xrotation Yrotation
                JOINT RightForeArm
                {
                  OFFSET 28.7848 1.62311e-005 0
                  CHANNELS 3 Zrotation Xrotation Yrotation
                  JOINT RightHand
                  {
                    OFFSET 26.5688 1.62095e-005 0
                    CHANNELS 3 Zrotation Xrotation Yrotation
                    End Site
                    {
                      OFFSET 0 0 0
                    }
                  }
                }
              }
            }
            JOINT LeftShoulder
            {
              OFFSET 2.38034 -1.29275 -3.7523
              CHANNELS 3 Zrotation Xrotation Yrotation
              JOINT LeftArm
              {
                OFFSET 16.3182 6.07031e-005 0
                CHANNELS 3 Zrotation Xrotation Yrotation
                JOINT LeftForeArm
                {
                  OFFSET 27.0901 0 0
                  CHANNELS 3 Zrotation Xrotation Yrotation
                  JOINT LeftHand
                  {
                    OFFSET 24.5451 1.51738e-005 0
                    CHANNELS 3 Zrotation Xrotation Yrotation
                    End Site
                    {
                      OFFSET 0 0 0
                    }
                  }
                }
              }
            }
            JOINT Neck
            {
              OFFSET 5.0226 -0.0266342 0
              CHANNELS 3 Zrotation Xrotation Yrotation
              JOINT Head
              {
                OFFSET 6.69364 2.86102e-005 0
                CHANNELS 3 Zrotation Xrotation Yrotation
                End Site
                {
                  OFFSET 0 0 0
                }
              }
            }
          }
        }
      }
    }
  }
}
MOTION
Frames:	12
Frame Time:	0.0416667
17.342 99.0799 -31.3831 -132.499 -77.6717 -134.997 -174.181 -5.19703 84.0718 -22.1785 4.66776 -1.76339 79.0036 9.35117 -1.72616 14.2965 -10.3646 6.91136 178.285 15.9462 89.9456 -21.476 -17.5683 -2.42746 61.6807 -1.51203 -0.87913 25.2229 1.06062 1.96872 -0.0791353 8.17458 -89.7591 10.5245 -0.0469453 0.482974 -1.1465 -0.0256355 0.48456 -23.681 -0.189929 0.446539 -3.66838 -0.189925 0.446528 91.2742 -27.961 -104.953 47.6049 -14.5885 4.90973 -14.704 -16.5582 -25.2213 -7.83618 -0.012655 -5.32583 -86.8996 -45.7749 82.6592 -15.0068 5.86733 -32.4375 10.9364 -4.64909 -17.0753 1.17857 -0.134507 -5.78854 3.43786 2.94061 -1.23755 -3.58166 3.10676 0.112613 
16.2386 98.1986 -23.91 -141.973 -80.4459 -144.744 -173.097 -11.5521 85.7383 -18.0014 9.0625 -1.96213 81.4628 11.7338 -1.82069 16.4372 -9.87603 8.06614 177.541 15.6331 90.0997 -9.07 -19.6892 -2.16991 60.6617 -0.327646 -0.272122 26.3976 0.581564 1.80313 -0.309226 8.03735 -89.7264 10.8008 -0.489361 0.59119 -0.87024 -0.46286 0.612145 -23.4054 -0.644421 0.416784 -3.39281 -0.644413 0.41679 91.0118 -29.6198 -104.882 48.0469 -12.5269 7.01089 -14.4147 -16.5973 -24.2528 -8.54229 -0.00143811 -5.48443 -86.8237 -45.4095 82.7136 -18.1638 2.41376 -36.8166 14.1495 1.23246 -20.3599 0.844941 -0.136157 -5.98834 3.99915 2.39034 -2.62519 -4.40827 2.79585 1.64843 
14.5207 97.3158 -15.6405 -159.301 -82.6439 -160.673 -170.9 -18.2757 89.8005 -13.2901 12.5695 -1.56589 82.6465 14.0328 -2.29401 19.4091 -9.67167 10.6852 177.979 19.0905 91.3525 -20.2778 -17.3422 -2.03722 58.6189 2.18637 -0.169616 22.2697 1.77845 3.8507 -0.444757 7.87563 -89.9846 11.1227 -0.878112 0.114568 -0.547921 -0.872218 0.153098 -23.0854 -0.871943 -0.154663 -3.07279 -0.871935 -0.154654 91.7023 -29.0978 -103.674 49.456 -12.2068 6.74905 -12.6266 -15.2755 -20.863 -7.22219 0.0369555 -6.19655 -87.1497 -47.8463 82.6338 -23.1186 -0.341027 -34.9734 16.8467 5.40597 -21.7294 0.0257186 -0.124499 -6.02024 5.40431 1.99516 -1.31446 -4.98808 2.17727 1.92827 
12.6339 97.6631 -6.85175 177.88 -82.3752 179.212 -168.192 -20.9818 95.5988 -16.3319 16.7383 0.370117 75.8354 10.8248 -0.17878 32.6392 -2.70153 11.0919 177.085 16.7615 94.1054 -27.9214 -15.8475 -0.619879 62.5705 -0.0748504 -1.76611 20.281 2.51194 4.16311 -0.477042 7.80914 -90.3437 11.2542 -1.10929 -0.573779 -0.416408 -1.13346 -0.524401 -22.9532 -0.885573 -0.880648 -2.94059 -0.885564 -0.880641 91.7278 -28.7235 -103.752 49.0621 -12.3001 5.73599 -12.6812 -14.9456 -21.0565 -7.49055 0.0181753 -5.85643 -87.0397 -48.4876 82.9135 -23.8185 6.12412 -27.3288 12.8863 0.442671 -13.7257 0.0715086 -0.127311 -6.06631 4.87076 1.62138 0.478632 -4.43835 1.49575 1.53734 
10.84 98.6292 0.457669 153.155 -80.7846 156.273 -168.468 -11.7743 99.563 -37.3179 21.6064 2.87815 67.1885 4.85564 1.16902 27.7727 -3.42189 7.03841 175.859 10.1428 95.936 -26.3319 -12.7472 1.15728 66.0673 -2.57066 -2.44741 21.1308 1.82434 5.1914 -0.364093 7.76478 -90.5241 11.3395 -0.968776 -0.946686 -0.331417 -1.0095 -0.903142 -22.8653 -0.639497 -1.19406 -2.85263 -0.639488 -1.19405 91.5418 -28.5231 -104.201 47.0813 -12.6796 3.55047 -13.3826 -14.4481 -22.7263 -7.90577 0.0478939 -6.27422 -86.9532 -47.2974 82.8423 -24.5944 19.4145 -19.5824 7.89754 -4.95146 -3.39438 -3.78459 -0.0662334 -6.34086 4.26482 0.317918 0.883807 -5.23339 0.151029 0.384081 
9.83835 99.0327 5.65659 140.575 -78.3283 144.802 -170.973 1.92508 100.075 -58.1874 15.3907 4.16764 60.1216 -0.847623 0.690749 7.59516 -9.43262 -0.0197794 175.047 4.43579 97.009 -24.0573 -10.061 2.41473 67.818 -3.92582 -1.14873 23.4885 1.15227 4.21462 0.0316044 7.98899 -90.6693 10.8923 -0.246451 -1.30751 -0.779305 -0.303749 -1.29539 -23.309 0.157862 -1.32112 -3.29636 0.157861 -1.32113 91.6619 -27.3813 -104.364 43.5788 -12.9949 -1.12237 -15.2344 -15.5931 -25.5097 -8.54119 0.00344286 -5.57926 -87.4028 -48.8729 82.4248 -26.5467 21.051 -11.0087 7.31334 -3.45829 -2.45787 -3.70398 -0.0799262 -5.06957 5.7825 -1.64125 1.3897 -4.27877 -1.88003 0.36483 
9.65912 99.3216 9.92465 135.563 -76.7208 138.664 -172.008 11.4463 96.6969 -61.5347 9.44989 2.824 68.4365 4.38075 0.968936 8.22949 -11.3791 3.40772 174.534 0.405463 96.2859 -23.2002 -7.99249 2.18413 70.8748 -5.23747 -0.91515 22.0657 1.49632 5.01681 0.611119 8.1356 -90.5944 10.6074 0.943789 -1.26708 -1.06384 0.887107 -1.30739 -23.5987 1.28095 -0.924876 -3.5861 1.28095 -0.924881 91.0594 -27.337 -105.627 37.6997 -12.8776 -5.44129 -15.1009 -16.206 -24.7671 -10.1256 -0.0399379 -4.93271 -87.3256 -50.2933 82.7868 -29.2516 14.8859 -1.71734 8.27572 -7.54951 -7.01187 -2.49142 -0.09141 -4.31609 4.50953 -3.52963 2.02881 -2.43884 -3.83471 -0.0385516 
10.4004 99.2755 14.0463 127.511 -75.9055 128.383 -173.624 16.5217 90.905 -48.1425 10.3979 0.615459 71.2223 6.76097 0.415764 12.5102 -9.84307 4.50114 173.427 -1.77257 94.0444 -22.9122 -7.75182 1.71161 72.9695 -5.22982 -0.286747 23.9164 1.29954 3.06192 1.01001 8.108 -90.3686 10.6662 1.8418 -0.900711 -1.00384 1.80039 -0.980922 -23.549 2.02733 -0.305337 -3.53641 2.02733 -0.305343 91.1511 -25.9467 -105.983 34.6356 -12.9698 -9.75525 -14.3568 -15.8555 -23.2199 -9.84708 -0.030136 -5.0516 -86.4356 -48.9292 83.9092 -32.0073 14.2473 3.79245 8.24256 -7.76488 -11.2195 -2.98812 -0.0892913 -4.15623 3.06589 -4.61096 3.12055 -2.77669 -5.06361 -0.50638 
11.4444 99.0698 18.4012 120.531 -75.7164 120.398 -174.651 17.6328 86.7434 -25.5615 4.87192 -1.5942 65.7068 3.84459 -0.717358 12.1033 -9.58788 3.77157 173.614 -4.31753 93.5598 -20.9854 -6.35913 0.831134 74.7384 -6.22791 -2.16381 25.4677 -0.0430799 5.58566 1.2796 8.02601 -90.34 10.8327 2.39091 -0.899287 -0.836452 2.34902 -1.00369 -23.3891 2.55058 -0.138701 -3.37645 2.55058 -0.138707 91.4892 -24.2728 -105.928 32.2626 -13.3841 -13.7213 -15.1473 -16.1792 -24.9105 -11.0121 -0.099578 -4.29746 -85.9078 -49.398 84.7824 -33.3527 12.7926 6.342 9.01553 -5.97396 -12.8529 -2.42895 -0.0861801 -3.3857 2.56381 -4.8587 6.14723 -2.77323 -5.78994 -1.22023 
12.6055 98.3958 23.4313 118.086 -76.1896 118.99 -175.714 16.0629 85.2741 -7.83961 -18.9551 -2.8495 62.5874 3.16163 -0.922574 12.1982 -10.0437 4.58782 173.91 -7.17193 94.497 -20.7102 -6.18497 0.797059 76.4795 -8.10119 -3.30394 25.2288 0.281917 4.74648 1.61191 7.92981 -90.5774 11.0344 2.94121 -1.431 -0.634176 2.87538 -1.55914 -23.195 3.23518 -0.480108 -3.18234 3.23518 -0.480114 91.8414 -23.303 -105.549 32.2065 -13.955 -15.9637 -16.8411 -16.5857 -27.8769 -9.78894 -0.0323399 -5.02831 -86.099 -51.7874 84.8447 -33.6592 10.5382 7.13645 8.83764 -7.5684 -12.7766 -2.81989 -0.0818428 -3.69544 1.99702 -5.44063 8.9327 -2.41921 -6.77727 -1.32171 
13.7713 97.5857 29.8497 117.78 -76.241 119.614 -175.27 17.1066 85.0136 -10.9867 -31.8848 -3.35001 63.9211 2.22422 -0.447713 8.06741 -12.761 5.18515 173.883 -12.4353 95.1131 -18.6746 -6.5693 0.995331 76.9948 -9.45805 -3.68655 27.1683 -0.161469 3.4139 1.78458 7.74714 -90.6906 11.4051 3.2287 -1.70114 -0.263157 3.15072 -1.84167 -22.8285 3.59053 -0.651125 -2.81583 3.59054 -0.651125 90.7088 -24.4669 -107.537 33.6002 -14.3035 -15.9597 -16.6473 -17.0101 -27.2627 -9.98153 -0.0360197 -5.0005 -85.2618 -51.8212 86.0861 -34.9314 10.0763 6.85557 8.69058 -8.29596 -12.8148 -4.19902 -0.07733 -4.22917 1.17788 -5.48517 9.21582 -3.42293 -6.79888 -0.646684 
15.3774 97.9035 36.8752 116.746 -76.6464 117.949 -174.459 16.7533 84.3287 -17.672 -26.3958 -3.91495 66.1945 2.48879 2.0086 -0.394666 -14.7202 1.57038 172.8 -15.5207 93.3228 -18.8354 -7.10376 0.880447 72.1765 -7.06584 -2.81375 35.091 -3.35265 3.08014 1.88602 7.4928 -90.5192 11.9144 3.50572 -1.41355 0.247191 3.44012 -1.56661 -22.3254 3.76827 -0.293217 -2.31276 3.76828 -0.293211 89.4386 -26.0173 -109.558 37.4871 -16.1537 -14.8607 -14.275 -17.6315 -22.5009 -8.60037 0.0484587 -6.1674 -84.4485 -51.3925 87.2381 -34.1552 9.33103 4.6113 8.90982 -8.81972 -11.6176 -3.43262 -0.0736796 -4.23152 0.364446 -5.08848 8.9515 -5.00576 -6.32136 0.448843 
